<svg width="40" height="40" viewBox="0 0 40 40" fill="none" xmlns="http://www.w3.org/2000/svg">
<path d="M20 11C20.5304 11 21.0391 11.2107 21.4142 11.5858C21.7893 11.9609 22 12.4696 22 13C22 13.5304 21.7893 14.0391 21.4142 14.4142C21.0391 14.7893 20.5304 15 20 15H18.2L14.2 11H20ZM20.42 19.77V19.76L17.66 17H17.65L15.65 15H15.66L11.66 11L9.66 9L2.39 1.73L1.11 3L4.12 6C3 7.5 3 9 3 9H7.11L9.11 11H4C2.9 11 2 11.9 2 13C2 14.1 2.9 15 4 15H13.11L15.11 17H3V18C3 19.66 4.34 21 6 21H18C18.33 21 18.65 20.93 18.94 20.83L20.84 22.73L22.11 21.46L20.42 19.77ZM21 9C21 9 21 3 12 3C9.88 3 8.28 3.34 7.05 3.85L12.2 9H21Z" fill="white"/>
</svg>
