<svg width="40" height="40" viewBox="0 0 40 40" fill="none" xmlns="http://www.w3.org/2000/svg">
<path d="M36.6667 21.6667C36.6667 23.5167 35.1833 25 33.3333 25H6.66666C5.78261 25 4.93476 24.6488 4.30964 24.0237C3.68452 23.3986 3.33333 22.5507 3.33333 21.6667C3.33333 20.7826 3.68452 19.9348 4.30964 19.3096C4.93476 18.6845 5.78261 18.3333 6.66666 18.3333H21.6667L25.8333 21.6667L30 18.3333H33.3333C34.2174 18.3333 35.0652 18.6845 35.6903 19.3096C36.3155 19.9348 36.6667 20.7826 36.6667 21.6667ZM20 5C4.99999 5 4.99999 15 4.99999 15H35C35 15 35 5 20 5ZM4.99999 30C4.99999 32.7667 7.23333 35 9.99999 35H30C32.7667 35 35 32.7667 35 30V28.3333H4.99999V30Z" fill="black"/>
</svg>
