<svg width="40" height="40" viewBox="0 0 40 40" fill="none" xmlns="http://www.w3.org/2000/svg">
<path d="M33.3333 18.3333C34.2174 18.3333 35.0652 18.6845 35.6904 19.3096C36.3155 19.9348 36.6667 20.7826 36.6667 21.6667C36.6667 22.5507 36.3155 23.3986 35.6904 24.0237C35.0652 24.6488 34.2174 25 33.3333 25H30.3333L23.6667 18.3333H33.3333ZM34.0333 32.95V32.9333L29.4333 28.3333H29.4167L26.0833 25H26.1L19.4333 18.3333L16.1 15L3.98333 2.88333L1.85 5L6.86666 10C5 12.5 5 15 5 15H11.85L15.1833 18.3333H6.66666C4.83333 18.3333 3.33333 19.8333 3.33333 21.6667C3.33333 23.5 4.83333 25 6.66666 25H21.85L25.1833 28.3333H5V30C5 32.7667 7.23333 35 10 35H30C30.55 35 31.0833 34.8833 31.5667 34.7167L34.7333 37.8833L36.85 35.7667L34.0333 32.95ZM35 15C35 15 35 5 20 5C16.4667 5 13.8 5.56666 11.75 6.41666L20.3333 15H35Z" fill="white"/>
</svg>
