<svg width="581" height="126" viewBox="0 0 581 126" fill="none" xmlns="http://www.w3.org/2000/svg">
<path d="M1.344 24.72H51.36V39.792H48.96L46.368 30.096C46.112 29.008 45.728 28.336 45.216 28.08C44.768 27.76 43.424 27.6 41.184 27.6H29.472V82.416C29.472 84.656 29.568 85.968 29.76 86.352C29.952 86.736 30.56 86.992 31.584 87.12L36.864 87.6V90H15.84V87.6L21.12 87.12C22.144 86.992 22.752 86.736 22.944 86.352C23.136 85.968 23.232 84.656 23.232 82.416V27.6H11.52C9.28 27.6 7.936 27.76 7.488 28.08C7.04 28.336 6.656 29.008 6.336 30.096L3.744 39.792H1.344V24.72ZM107.984 87.6V90H87.4395V87.6L92.7195 87.12C93.7435 86.992 94.3515 86.736 94.5435 86.352C94.7355 85.968 94.8315 84.656 94.8315 82.416V58.704C94.8315 53.776 93.9995 50.352 92.3355 48.432C90.6715 46.512 88.3035 45.552 85.2315 45.552C82.7995 45.552 80.2395 46.16 77.5515 47.376C74.8635 48.592 72.1435 50.896 69.3915 54.288V82.416C69.3915 84.656 69.4875 85.968 69.6795 86.352C69.8715 86.736 70.4795 86.992 71.5035 87.12L76.7835 87.6V90H56.2395V87.6L61.5195 87.12C62.5435 86.992 63.1515 86.736 63.3435 86.352C63.5355 85.968 63.6315 84.656 63.6315 82.416V26.544C63.6315 24.304 63.5355 22.992 63.3435 22.608C63.1515 22.16 62.5435 21.904 61.5195 21.84L56.2395 21.36V18.96H69.3915V50.256C71.9515 47.44 74.6715 45.424 77.5515 44.208C80.4315 42.928 83.2795 42.288 86.0955 42.288C90.8315 42.288 94.4155 43.728 96.8475 46.608C99.3435 49.424 100.592 53.424 100.592 58.608V82.416C100.592 84.656 100.688 85.968 100.88 86.352C101.072 86.736 101.68 86.992 102.704 87.12L107.984 87.6ZM154.488 79.344C153.336 83.632 151.16 86.64 147.96 88.368C144.824 90.096 141.4 90.96 137.688 90.96C131.032 90.96 126.04 88.848 122.712 84.624C119.448 80.336 117.816 74.64 117.816 67.536V65.616C117.816 58.576 119.416 52.944 122.616 48.72C125.88 44.432 130.616 42.288 136.824 42.288C140.088 42.288 143.096 42.96 145.848 44.304C148.6 45.648 150.808 47.664 152.472 50.352C154.136 53.04 154.968 56.464 154.968 60.624C154.968 62.416 154.776 64.368 154.392 66.48H124.344V69.456C124.344 76.048 125.4 80.816 127.512 83.76C129.688 86.64 133.24 88.08 138.168 88.08C141.304 88.08 143.864 87.344 145.848 85.872C147.832 84.4 149.24 81.808 150.072 78.096L154.488 79.344ZM136.824 45.168C132.6 45.168 129.464 46.608 127.416 49.488C125.368 52.304 124.344 57.008 124.344 63.6H148.728C148.792 62.832 148.824 62.16 148.824 61.584C148.888 60.944 148.92 60.368 148.92 59.856C148.92 54.608 147.8 50.864 145.56 48.624C143.32 46.32 140.408 45.168 136.824 45.168ZM197.73 62.832V60.432H220.386V62.832L215.106 63.312C214.082 63.376 213.474 63.632 213.282 64.08C213.09 64.464 212.994 65.776 212.994 68.016V90H210.882C210.498 89.104 210.018 88.304 209.442 87.6C208.866 86.832 208.226 86.128 207.522 85.488C203.682 89.136 198.626 90.96 192.354 90.96C187.362 90.96 183.106 89.744 179.586 87.312C176.13 84.816 173.474 81.36 171.618 76.944C169.826 72.464 168.93 67.248 168.93 61.296V53.328C168.93 47.376 169.858 42.192 171.714 37.776C173.57 33.296 176.258 29.84 179.778 27.408C183.362 24.976 187.682 23.76 192.738 23.76C197.666 23.76 201.73 24.72 204.93 26.64C208.13 28.496 210.402 30.928 211.746 33.936C213.09 36.944 213.442 40.176 212.802 43.632L206.562 45.168C207.266 39.216 206.434 34.64 204.066 31.44C201.762 28.176 198.05 26.544 192.93 26.544C187.362 26.544 183.138 28.24 180.258 31.632C177.378 35.024 175.938 40.656 175.938 48.528V66.096C175.938 73.84 177.346 79.44 180.162 82.896C183.042 86.352 187.266 88.08 192.834 88.08C195.842 88.08 198.53 87.568 200.898 86.544C203.266 85.456 205.314 83.696 207.042 81.264V68.016C207.042 65.776 206.946 64.464 206.754 64.08C206.562 63.632 205.954 63.376 204.93 63.312L197.73 62.832ZM266.048 90.48C263.872 90.48 262.08 89.872 260.672 88.656C259.264 87.376 258.4 85.616 258.08 83.376C255.712 86.064 253.152 88.016 250.4 89.232C247.648 90.384 244.928 90.96 242.24 90.96C237.76 90.96 234.464 89.712 232.352 87.216C230.304 84.656 229.28 81.68 229.28 78.288C229.28 74.512 230.528 71.568 233.024 69.456C235.52 67.344 239.776 66.288 245.792 66.288H257.984V58.512C257.984 53.392 256.992 49.904 255.008 48.048C253.024 46.128 250.336 45.168 246.944 45.168C244.768 45.168 242.848 45.552 241.184 46.32C239.52 47.024 238.304 48.368 237.536 50.352C236.768 52.272 236.576 55.056 236.96 58.704L231.392 57.744C231.008 53.264 232.16 49.584 234.848 46.704C237.536 43.76 241.632 42.288 247.136 42.288C251.552 42.288 254.944 43.056 257.312 44.592C259.744 46.064 261.408 48.048 262.304 50.544C263.264 52.976 263.744 55.632 263.744 58.512V79.728C263.744 82.992 264.16 85.04 264.992 85.872C265.888 86.704 266.848 87.12 267.872 87.12C268.384 87.12 268.992 86.992 269.696 86.736C270.4 86.48 271.104 86.032 271.808 85.392L273.536 87.696C272.64 88.528 271.584 89.2 270.368 89.712C269.152 90.224 267.712 90.48 266.048 90.48ZM243.872 87.6C245.728 87.6 247.84 87.088 250.208 86.064C252.64 85.04 255.232 82.768 257.984 79.248V69.168H246.56C242.656 69.168 239.808 69.872 238.016 71.28C236.224 72.624 235.328 74.8 235.328 77.808C235.328 80.88 236.032 83.28 237.44 85.008C238.848 86.736 240.992 87.6 243.872 87.6ZM278.24 21.36V18.96H291.392V82.416C291.392 84.656 291.488 85.968 291.68 86.352C291.872 86.736 292.48 86.992 293.504 87.12L298.784 87.6V90H278.24V87.6L283.52 87.12C284.544 86.992 285.152 86.736 285.344 86.352C285.536 85.968 285.632 84.656 285.632 82.416V26.544C285.632 24.304 285.536 22.992 285.344 22.608C285.152 22.16 284.544 21.904 283.52 21.84L278.24 21.36ZM305.896 21.36V18.96H319.048V82.416C319.048 84.656 319.144 85.968 319.336 86.352C319.528 86.736 320.136 86.992 321.16 87.12L326.44 87.6V90H305.896V87.6L311.176 87.12C312.2 86.992 312.808 86.736 313 86.352C313.192 85.968 313.288 84.656 313.288 82.416V26.544C313.288 24.304 313.192 22.992 313 22.608C312.808 22.16 312.2 21.904 311.176 21.84L305.896 21.36ZM373.488 79.344C372.336 83.632 370.16 86.64 366.96 88.368C363.824 90.096 360.4 90.96 356.688 90.96C350.032 90.96 345.04 88.848 341.712 84.624C338.448 80.336 336.816 74.64 336.816 67.536V65.616C336.816 58.576 338.416 52.944 341.616 48.72C344.88 44.432 349.616 42.288 355.824 42.288C359.088 42.288 362.096 42.96 364.848 44.304C367.6 45.648 369.808 47.664 371.472 50.352C373.136 53.04 373.968 56.464 373.968 60.624C373.968 62.416 373.776 64.368 373.392 66.48H343.344V69.456C343.344 76.048 344.4 80.816 346.512 83.76C348.688 86.64 352.24 88.08 357.168 88.08C360.304 88.08 362.864 87.344 364.848 85.872C366.832 84.4 368.24 81.808 369.072 78.096L373.488 79.344ZM355.824 45.168C351.6 45.168 348.464 46.608 346.416 49.488C344.368 52.304 343.344 57.008 343.344 63.6H367.728C367.792 62.832 367.824 62.16 367.824 61.584C367.888 60.944 367.92 60.368 367.92 59.856C367.92 54.608 366.8 50.864 364.56 48.624C362.32 46.32 359.408 45.168 355.824 45.168ZM384.378 45.648V43.248H397.146V50.736C399.578 47.728 401.914 45.584 404.154 44.304C406.394 42.96 408.602 42.288 410.778 42.288C415.194 42.288 418.586 44.56 420.954 49.104L416.25 52.368C415.226 50.256 414.106 48.752 412.89 47.856C411.738 46.96 410.33 46.512 408.666 46.512C406.874 46.512 405.146 47.088 403.482 48.24C401.818 49.328 399.834 51.472 397.53 54.672V82.416C397.53 84.656 397.626 86 397.818 86.448C398.01 86.832 398.618 87.056 399.642 87.12L406.842 87.6V90H384.378V87.6L389.658 87.12C390.682 86.992 391.29 86.736 391.482 86.352C391.674 85.968 391.77 84.656 391.77 82.416V50.832C391.77 48.592 391.674 47.28 391.482 46.896C391.29 46.448 390.682 46.192 389.658 46.128L384.378 45.648ZM446.471 94.8C444.423 100.624 442.087 104.848 439.463 107.472C436.839 110.096 433.159 111.408 428.423 111.408V105.648C430.983 105.648 433.159 105.328 434.951 104.688C436.807 104.112 438.407 102.992 439.751 101.328C441.095 99.664 442.311 97.264 443.399 94.128L444.839 90H443.495L429.095 49.872C428.519 48.208 428.071 47.216 427.751 46.896C427.431 46.576 426.759 46.352 425.735 46.224L421.031 45.648V43.248H440.327V45.648L435.623 46.224C434.599 46.352 434.055 46.576 433.991 46.896C433.927 47.216 434.183 48.208 434.759 49.872L446.951 84.048L459.047 49.872C459.623 48.208 459.847 47.216 459.719 46.896C459.655 46.576 459.111 46.352 458.087 46.224L453.383 45.648V43.248H470.375V45.648L465.671 46.224C464.711 46.288 464.071 46.512 463.751 46.896C463.495 47.216 463.047 48.208 462.407 49.872L446.471 94.8ZM476.543 90.96C475.263 90.96 474.175 90.544 473.279 89.712C472.447 88.816 472.031 87.696 472.031 86.352C472.031 85.072 472.447 84.016 473.279 83.184C474.175 82.288 475.263 81.84 476.543 81.84C477.887 81.84 478.975 82.288 479.807 83.184C480.703 84.016 481.151 85.072 481.151 86.352C481.151 87.696 480.703 88.816 479.807 89.712C478.975 90.544 477.887 90.96 476.543 90.96Z" fill="black"/>
<rect x="502" y="7" width="79" height="93.4363" fill="#1E1E1E"/>
<rect x="510.63" y="17.1561" width="61.7395" height="73.8011" fill="#BAD0B8"/>
<path d="M528.85 61.166L544.629 91.0415H513.071L528.85 61.166Z" fill="#324327"/>
<path d="M535.157 61.166L546.688 91.0415H523.627L535.157 61.166Z" fill="#B4C3AB"/>
<path d="M560.383 61.166L571.914 91.0415H548.852L560.383 61.166Z" fill="#3F9A69"/>
<path d="M553.143 67.1884L565.685 91.0177H540.601L553.143 67.1884Z" fill="#708662"/>
</svg>
